<svg width="19" height="18" viewBox="0 0 19 18" fill="none" xmlns="http://www.w3.org/2000/svg">
<path d="M0.871094 9.57213C0.871094 9.19077 0.871094 8.80942 0.871094 8.44925C0.871094 8.42806 0.892206 8.38569 0.892206 8.3645C0.955541 7.91959 0.997765 7.49586 1.08221 7.05094C1.25111 6.1823 1.5889 5.35603 2.01114 4.59331C2.64449 3.49162 3.46786 2.55942 4.50234 1.7967C5.68461 0.92806 7.01465 0.398399 8.47138 0.186535C9.27363 0.0806026 10.0548 0.0594161 10.857 0.165348C11.6593 0.271281 12.4193 0.483145 13.1793 0.800942C14.6783 1.43653 15.9028 2.41111 16.8739 3.72467C17.7606 4.9323 18.3095 6.26704 18.5206 7.75009C18.6684 8.78823 18.6262 9.80518 18.4151 10.8433C18.2251 11.7543 17.9084 12.623 17.4439 13.4281C16.6628 14.784 15.6072 15.8645 14.2771 16.6696C13.3271 17.2416 12.3137 17.623 11.237 17.7925C11.0259 17.8348 10.8359 17.856 10.6248 17.8984C10.0337 17.8984 9.46363 17.8984 8.8725 17.8984C8.83028 17.8984 8.80917 17.8772 8.76694 17.8772C8.07025 17.8137 7.37356 17.6442 6.71909 17.3899C5.70572 17.0086 4.77679 16.4789 3.97454 15.7586C2.77116 14.7204 1.90558 13.4492 1.37778 11.945C1.18777 11.3942 1.0611 10.8433 0.976653 10.2713C0.913318 10.0382 0.892206 9.80518 0.871094 9.57213ZM2.4756 9.00009C2.4756 13.0255 5.72683 16.2882 9.71698 16.2882C13.7282 16.2882 16.9795 13.0255 16.9795 9.00009C16.9795 4.97467 13.7282 1.71196 9.73809 1.71196C5.72683 1.71196 2.4756 4.97467 2.4756 9.00009Z" fill="#828282"/>
<path d="M10.5194 6.22457C10.5194 6.92372 10.5194 7.62288 10.5194 8.30084C10.5194 8.44915 10.5617 8.5127 10.6883 8.55508C11.5539 8.97881 12.4195 9.42372 13.2851 9.84745C13.834 10.1229 13.9184 10.8008 13.4962 11.1822C13.2429 11.4152 12.9051 11.4576 12.5884 11.2881C12.1662 11.0763 11.7228 10.8644 11.3006 10.6525C10.6672 10.3347 10.055 10.0169 9.42161 9.72033C9.10493 9.57203 8.93604 9.31779 8.93604 8.95762C8.93604 7.34745 8.93604 5.7161 8.93604 4.10593C8.93604 3.72457 9.18938 3.40677 9.54828 3.32203C9.92829 3.23728 10.3083 3.40677 10.4561 3.76694C10.4983 3.89406 10.5194 4.02118 10.5194 4.1483C10.5405 4.86864 10.5194 5.5466 10.5194 6.22457Z" fill="#828282"/>
</svg>
