<svg width="131" height="60" viewBox="0 0 131 60" fill="none" xmlns="http://www.w3.org/2000/svg">
<path d="M86 0H0V59.5H86L130.5 28.5L86 0Z" fill="#4F4F4F"/>
<path d="M87 14H0V44H87L131 29L87 14Z" fill="#E24648"/>
<path d="M46.7594 37V30.488H40.2474V37H37.8054V21.93H40.2474V28.354H46.7594V21.93H49.2234V37H46.7594ZM58.1946 32.314H55.1146V37H52.6726V21.93H58.1946C61.6119 21.93 63.3206 23.6167 63.3206 26.99C63.3206 28.7207 62.8879 30.0407 62.0226 30.95C61.1719 31.8593 59.8959 32.314 58.1946 32.314ZM55.1146 30.202H58.1726C59.9326 30.202 60.8126 29.1313 60.8126 26.99C60.8126 25.9633 60.5999 25.2153 60.1746 24.746C59.7492 24.2767 59.0819 24.042 58.1726 24.042H55.1146V30.202Z" fill="white"/>
</svg>
