<svg width="9" height="14" viewBox="0 0 9 14" fill="none" xmlns="http://www.w3.org/2000/svg">
<circle cx="4.5" cy="6.5" r="4.5" fill="#E24648"/>
<path d="M6.248 4.728C6.248 5.08533 6.20267 5.35733 6.112 5.544C6.02667 5.73067 5.848 5.93067 5.576 6.144C5.304 6.35733 5.12267 6.528 5.032 6.656C4.94667 6.77867 4.904 6.912 4.904 7.056V7.32H4.2C4.072 7.15467 4.008 6.94667 4.008 6.696C4.008 6.56267 4.05867 6.42933 4.16 6.296C4.26133 6.16267 4.44267 5.98933 4.704 5.776C4.96533 5.55733 5.13867 5.38933 5.224 5.272C5.30933 5.14933 5.352 4.98933 5.352 4.792C5.352 4.40267 5.06933 4.208 4.504 4.208C4.184 4.208 3.848 4.24533 3.496 4.32L3.312 4.36L3.264 3.696C3.76 3.52 4.21067 3.432 4.616 3.432C5.176 3.432 5.58667 3.536 5.848 3.744C6.11467 3.94667 6.248 4.27467 6.248 4.728ZM4.064 9V7.88H4.992V9H4.064Z" fill="white"/>
</svg>
