<svg width="131" height="60" viewBox="0 0 131 60" fill="none" xmlns="http://www.w3.org/2000/svg">
<path d="M86 0H0V59.5H86L130.5 28.5L86 0Z" fill="#4F4F4F"/>
<path d="M87 14H0V44H87L131 29L87 14Z" fill="#E24648"/>
<path d="M18.1669 24.108V21.93H29.1669V24.108H24.9209V37H22.4569V24.108H18.1669ZM29.7667 27.188C30.5294 26.2347 31.7907 25.758 33.5507 25.758C35.3107 25.758 36.5647 26.2347 37.3127 27.188C38.0754 28.1413 38.4567 29.5713 38.4567 31.478C38.4567 33.3847 38.09 34.822 37.3567 35.79C36.6234 36.758 35.3547 37.242 33.5507 37.242C31.7467 37.242 30.478 36.758 29.7447 35.79C29.0114 34.822 28.6447 33.3847 28.6447 31.478C28.6447 29.5713 29.0187 28.1413 29.7667 27.188ZM31.5707 34.338C31.908 34.9247 32.568 35.218 33.5507 35.218C34.5334 35.218 35.1934 34.9247 35.5307 34.338C35.868 33.7513 36.0367 32.7907 36.0367 31.456C36.0367 30.1213 35.8534 29.1753 35.4867 28.618C35.1347 28.0607 34.4894 27.782 33.5507 27.782C32.612 27.782 31.9594 28.0607 31.5927 28.618C31.2407 29.1753 31.0647 30.1213 31.0647 31.456C31.0647 32.7907 31.2334 33.7513 31.5707 34.338ZM40.8387 37V26H43.2147V27.32C44.4614 26.5133 45.7081 25.9927 46.9547 25.758V28.156C45.6934 28.4053 44.6154 28.728 43.7207 29.124L43.2367 29.322V37H40.8387ZM52.4865 37.242C50.9758 37.242 49.8758 36.8167 49.1865 35.966C48.5118 35.1153 48.1745 33.6267 48.1745 31.5C48.1745 29.3587 48.5705 27.87 49.3625 27.034C50.1692 26.1833 51.5552 25.758 53.5205 25.758C54.2392 25.758 55.3392 25.824 56.8205 25.956L57.5465 26.022V41.73H55.1705V36.582C54.1878 37.022 53.2932 37.242 52.4865 37.242ZM53.5205 27.826C52.3618 27.826 51.5772 28.1193 51.1665 28.706C50.7705 29.278 50.5725 30.2167 50.5725 31.522C50.5725 32.8273 50.7485 33.7513 51.1005 34.294C51.4672 34.8367 52.0245 35.108 52.7725 35.108C53.4618 35.108 54.1512 34.998 54.8405 34.778L55.1705 34.668V27.914C54.4665 27.8553 53.9165 27.826 53.5205 27.826ZM67.12 26H69.496V37H67.12V36.318C66.0493 36.934 65.0593 37.242 64.15 37.242C62.6393 37.242 61.6273 36.8387 61.114 36.032C60.6006 35.2107 60.344 33.7807 60.344 31.742V26H62.742V31.764C62.742 33.084 62.852 33.9713 63.072 34.426C63.292 34.8807 63.8053 35.108 64.612 35.108C65.404 35.108 66.13 34.9613 66.79 34.668L67.12 34.536V26ZM80.2313 35.02L80.8473 34.954L80.8913 36.736C79.2193 37.0733 77.7379 37.242 76.4473 37.242C74.8193 37.242 73.6459 36.7947 72.9273 35.9C72.2233 35.0053 71.8713 33.5753 71.8713 31.61C71.8713 27.7087 73.4626 25.758 76.6453 25.758C79.7253 25.758 81.2653 27.4373 81.2653 30.796L81.1113 32.512H74.2913C74.3059 33.4213 74.5039 34.0887 74.8853 34.514C75.2666 34.9393 75.9779 35.152 77.0193 35.152C78.0606 35.152 79.1313 35.108 80.2313 35.02ZM78.9113 30.664C78.9113 29.5787 78.7353 28.8233 78.3833 28.398C78.0459 27.958 77.4666 27.738 76.6453 27.738C75.8239 27.738 75.2226 27.9653 74.8413 28.42C74.4746 28.8747 74.2839 29.6227 74.2693 30.664H78.9113Z" fill="white"/>
</svg>
