<svg width="350" height="107" viewBox="0 0 350 107" fill="none" xmlns="http://www.w3.org/2000/svg">
<path d="M147.008 68.1585C146.784 67.935 146.709 67.7115 146.709 67.4136V40.7469C146.709 40.449 146.784 40.2255 147.008 40.0021C147.157 39.7786 147.455 39.7041 147.753 39.7041H151.406C152.002 39.7041 152.45 39.9276 152.748 40.449L161.395 55.1231L170.043 40.449C170.341 39.9276 170.788 39.7041 171.385 39.7041H174.963C175.261 39.7041 175.559 39.7786 175.783 40.0021C176.007 40.2255 176.081 40.449 176.081 40.7469V67.4881C176.081 67.786 176.007 68.0095 175.783 68.233C175.559 68.3819 175.336 68.5309 174.963 68.5309H171.086C170.788 68.5309 170.565 68.4564 170.341 68.233C170.117 68.0095 170.043 67.786 170.043 67.5626V49.76L163.855 60.6352C163.557 61.2311 163.035 61.5291 162.364 61.5291H160.501C159.904 61.5291 159.383 61.2311 159.01 60.6352L152.673 49.76V67.4136C152.673 67.7115 152.599 67.935 152.375 68.084C152.151 68.3075 151.928 68.3819 151.555 68.3819H147.679C147.455 68.4564 147.231 68.3075 147.008 68.1585Z" fill="#E24648"/>
<path d="M182.194 68.1585C181.971 67.935 181.896 67.7116 181.896 67.4881V40.7469C181.896 40.449 181.971 40.2255 182.194 40.0021C182.343 39.7786 182.567 39.7041 182.94 39.7041H195.911C199.415 39.7041 202.024 40.3745 203.738 41.7898C205.453 43.205 206.348 45.1417 206.348 47.5253C206.348 48.9406 205.975 50.1324 205.229 51.1752C204.484 52.1436 203.589 52.8885 202.546 53.3354C203.813 53.8568 204.857 54.6762 205.751 55.868C206.646 57.0598 207.018 58.4006 207.018 59.8903C207.018 62.4229 206.049 64.5086 204.186 66.0728C202.322 67.6371 199.638 68.3819 196.284 68.3819H182.865C182.641 68.4564 182.343 68.3075 182.194 68.1585ZM195.165 51.4732C196.656 51.4732 197.849 51.1007 198.669 50.4304C199.489 49.76 199.936 48.8661 199.936 47.6743C199.936 46.557 199.564 45.6631 198.744 44.9927C197.924 44.3968 196.731 44.0244 195.165 44.0244H188.233V51.3987H195.165V51.4732ZM195.613 64.0616C197.178 64.0616 198.371 63.6892 199.266 62.8698C200.16 62.125 200.533 61.0821 200.533 59.8903C200.533 58.6985 200.086 57.7302 199.191 56.9108C198.296 56.1659 197.104 55.719 195.613 55.719H188.233V63.9872H195.613V64.0616Z" fill="#E24648"/>
<path d="M212.013 68.1585C211.864 68.0095 211.715 67.786 211.715 67.4881V40.6724C211.715 40.3745 211.789 40.151 212.013 40.0021C212.162 39.8531 212.46 39.7041 212.759 39.7041H213.579C213.877 39.7041 214.175 39.7786 214.324 39.9276C214.473 40.0765 214.622 40.3 214.622 40.598V52.5905H231.917V40.6724C231.917 40.3745 231.992 40.151 232.215 40.0021C232.364 39.8531 232.663 39.7041 232.961 39.7041H233.781C234.079 39.7041 234.377 39.7786 234.526 39.9276C234.675 40.0765 234.825 40.3 234.825 40.598V67.4881C234.825 67.786 234.75 68.0095 234.526 68.1585C234.303 68.3075 234.079 68.3819 233.781 68.3819H232.961C232.663 68.3819 232.439 68.3075 232.215 68.1585C232.066 68.0095 231.917 67.786 231.917 67.4881V55.0486H214.622V67.4881C214.622 67.786 214.548 68.0095 214.324 68.1585C214.1 68.3075 213.877 68.3819 213.579 68.3819H212.759C212.46 68.4564 212.237 68.3075 212.013 68.1585Z" fill="black"/>
<path d="M240.639 57.5066C240.639 56.6872 240.564 55.5699 240.564 54.0801C240.564 52.5904 240.564 51.4731 240.639 50.6537C240.788 46.9293 241.832 44.0988 243.994 42.2366C246.081 40.2999 248.914 39.3315 252.492 39.3315C256.07 39.3315 258.903 40.2999 260.99 42.2366C263.078 44.1733 264.196 47.0038 264.345 50.6537C264.42 52.2924 264.42 53.4098 264.42 54.0801C264.42 54.7505 264.42 55.8679 264.345 57.5066C264.121 65.0299 260.17 68.8287 252.492 68.8287C244.814 68.8287 240.863 65.0299 240.639 57.5066ZM258.978 64.136C260.543 62.6463 261.438 60.3371 261.587 57.2831C261.661 55.6444 261.661 54.5271 261.661 54.0057C261.661 53.4842 261.661 52.4414 261.587 50.7282C261.438 47.6742 260.618 45.3651 258.978 43.8753C257.338 42.3855 255.25 41.6407 252.567 41.6407C249.883 41.6407 247.796 42.3855 246.156 43.8753C244.515 45.3651 243.695 47.6742 243.546 50.7282C243.546 51.5476 243.472 52.6649 243.472 54.0057C243.472 55.3464 243.472 56.3893 243.546 57.2831C243.695 60.3371 244.515 62.6463 246.156 64.136C247.721 65.6258 249.883 66.3706 252.567 66.3706C255.176 66.3706 257.338 65.6258 258.978 64.136Z" fill="black"/>
<path d="M272.993 65.9983C270.98 64.0616 270.011 61.2311 270.011 57.3577V40.6724C270.011 40.3745 270.085 40.151 270.309 40.0021C270.458 39.8531 270.756 39.7041 271.054 39.7041H271.874C272.173 39.7041 272.471 39.7786 272.62 39.9276C272.769 40.0765 272.918 40.3 272.918 40.598V57.3577C272.918 60.3372 273.664 62.6464 275.229 64.0616C276.72 65.5514 278.882 66.2963 281.715 66.2963C284.473 66.2963 286.635 65.5514 288.126 64.0616C289.617 62.5719 290.437 60.3372 290.437 57.3577V40.6724C290.437 40.3745 290.511 40.151 290.735 40.0021C290.959 39.8531 291.182 39.7786 291.48 39.7786H292.3C292.599 39.7786 292.822 39.8531 293.046 40.0765C293.195 40.2255 293.344 40.449 293.344 40.7469V57.4322C293.344 61.3801 292.375 64.2106 290.362 66.1473C288.424 68.0095 285.517 68.9778 281.789 68.9778C277.838 68.8289 274.931 67.8605 272.993 65.9983Z" fill="black"/>
<path d="M303.334 67.786C301.619 67.1156 300.277 66.1472 299.383 65.0299C298.488 63.9126 297.966 62.7208 297.892 61.4545C297.892 61.231 297.966 61.0076 298.19 60.8586C298.339 60.7096 298.563 60.6351 298.861 60.6351H299.755C300.277 60.6351 300.65 60.9331 300.724 61.4545C300.948 62.7953 301.768 63.9126 303.184 64.8809C304.601 65.8493 306.688 66.3707 309.372 66.3707C312.205 66.3707 314.367 65.9238 315.708 64.9554C317.125 63.9871 317.796 62.7208 317.796 61.0076C317.796 59.9647 317.423 59.1454 316.752 58.475C316.081 57.8046 315.112 57.2087 313.845 56.6873C312.577 56.1659 310.639 55.57 308.03 54.7506C305.719 54.0802 303.93 53.4098 302.588 52.7394C301.321 52.069 300.352 51.2497 299.681 50.2813C299.084 49.313 298.712 48.1212 298.712 46.6314C298.712 45.2161 299.159 43.9498 299.979 42.8325C300.799 41.7152 301.992 40.8214 303.557 40.151C305.123 39.4806 306.986 39.1826 309.148 39.1826C311.385 39.1826 313.248 39.5551 314.814 40.2999C316.379 41.0448 317.572 41.9387 318.392 43.056C319.212 44.1733 319.659 45.2906 319.659 46.4079C319.659 46.6314 319.585 46.8549 319.436 47.0038C319.287 47.1528 319.063 47.2273 318.765 47.2273H317.87C317.647 47.2273 317.423 47.1528 317.274 47.0783C317.05 46.9294 316.976 46.7804 316.901 46.4079C316.752 45.0672 315.932 43.8754 314.516 43.056C313.099 42.1621 311.31 41.7152 309.148 41.7152C306.837 41.7152 305.048 42.1621 303.632 42.9815C302.29 43.8009 301.619 45.0672 301.619 46.7059C301.619 47.7487 301.917 48.6426 302.514 49.3875C303.11 50.0578 304.079 50.6538 305.272 51.1752C306.465 51.6966 308.328 52.2925 310.714 53.0374C313.174 53.7822 315.112 54.4526 316.454 55.123C317.796 55.7934 318.839 56.5383 319.585 57.5066C320.256 58.4005 320.629 59.6668 320.629 61.0821C320.629 63.5402 319.659 65.4768 317.647 66.8176C315.634 68.2329 312.876 68.9033 309.372 68.9033C307.061 68.8288 305.048 68.4564 303.334 67.786Z" fill="black"/>
<path d="M326.071 68.1585C325.922 68.0095 325.772 67.786 325.772 67.4881V40.6724C325.772 40.3745 325.847 40.151 326.071 40.0021C326.22 39.8531 326.518 39.7041 326.816 39.7041H344.26C344.558 39.7041 344.857 39.7786 345.006 39.9276C345.155 40.0765 345.304 40.3 345.304 40.598V41.1939C345.304 41.4918 345.229 41.7153 345.006 41.8643C344.782 42.0132 344.558 42.0877 344.26 42.0877H328.605V52.516H343.291C343.589 52.516 343.888 52.5905 344.037 52.7395C344.186 52.8885 344.335 53.1119 344.335 53.4099V54.0058C344.335 54.3037 344.26 54.5272 344.037 54.6762C343.813 54.8251 343.589 54.8996 343.291 54.8996H328.605V65.7749H344.633C344.931 65.7749 345.229 65.8494 345.378 65.9983C345.528 66.1473 345.677 66.3708 345.677 66.6687V67.2646C345.677 67.5626 345.602 67.786 345.378 67.935C345.155 68.084 344.931 68.1585 344.633 68.1585H326.742C326.443 68.4564 326.22 68.3075 326.071 68.1585Z" fill="black"/>
<path d="M34.9344 106.177C31.8856 106.177 28.9638 104.531 27.4394 101.872L1.90551 57.8053C0.381105 55.1462 0.381105 51.8538 1.90551 49.1947L27.5029 5.06509C29.0273 2.40592 31.8856 0.759766 34.9979 0.759766H86.0656C89.1144 0.759766 92.0362 2.40592 93.5606 5.06509L119.094 49.1314C120.619 51.7905 120.619 55.0828 119.094 57.742L93.5606 101.808C92.0362 104.467 89.178 106.114 86.0656 106.114H34.9344V106.177Z" fill="white"/>
<path d="M86.0666 1.51953C88.8613 1.51953 91.4655 3.03905 92.8629 5.44497L118.397 49.5112C119.794 51.9172 119.794 54.9562 118.397 57.3621L92.8629 101.428C91.4655 103.834 88.8613 105.354 86.0666 105.354H34.9353C32.1406 105.354 29.5364 103.834 28.139 101.428L2.60516 57.4254C1.20778 55.0195 1.20778 51.9805 2.60516 49.5746L28.139 5.44497C29.5364 3.03905 32.1406 1.51953 34.9353 1.51953H86.0666ZM86.0666 0H34.9353C31.5689 0 28.4566 1.77278 26.8052 4.68521L1.2713 48.8148C-0.380146 51.7272 -0.380146 55.2728 1.2713 58.1852L26.8052 102.251C28.4566 105.164 31.5689 106.937 34.9353 106.937H86.003C89.3695 106.937 92.4818 105.164 94.1332 102.251L119.667 58.1852C121.319 55.2728 121.319 51.7272 119.667 48.8148L94.1968 4.68521C92.5453 1.77278 89.433 0 86.0666 0Z" fill="#CD524E"/>
<path d="M58.1183 17.6012C59.8968 17.6012 61.6753 18.0444 63.1997 18.9941L89.0511 33.8728C91.4013 35.2657 93.1162 37.4184 93.8149 40.0776C94.5136 42.7367 94.1325 45.4592 92.7986 47.8018L71.7745 84.1438C70.8853 85.7267 69.5514 87.0563 67.9635 87.9426C66.4391 88.829 64.6606 89.2722 62.8821 89.2722C61.1036 89.2722 59.3251 88.829 57.8007 87.8793L31.9493 73.0006C29.5992 71.6077 27.8842 69.4551 27.1855 66.7959C26.4868 64.1367 26.8679 61.4142 28.2018 59.0716L49.2259 22.7296C50.1152 21.1468 51.449 19.8172 53.037 18.9308C54.6249 18.0444 56.4034 17.6012 58.1183 17.6012ZM58.1183 13.6758C53.2275 13.6758 48.4002 16.2083 45.796 20.7669L24.7719 57.0456C20.8338 63.8202 23.1839 72.4941 29.9803 76.4196L55.8317 91.2983C58.0548 92.5645 60.532 93.1977 62.9456 93.1977C67.8364 93.1977 72.6637 90.6651 75.2679 86.1066L96.2921 49.7645C100.23 42.99 97.88 34.316 91.0837 30.3906L65.2322 15.5119C63.0091 14.2456 60.532 13.6758 58.1183 13.6758Z" fill="#E24648"/>
<path d="M88.3526 43.623C88.035 41.2171 87.0187 39.0645 85.1767 37.4183C84.224 36.5952 82.8266 35.6455 81.6833 35.0757C76.983 32.4165 71.9652 29.6307 67.2649 26.9716C66.8838 26.7816 66.5662 26.4651 66.3122 26.0852C65.2959 24.8189 64.0891 24.629 63.2633 24.7556C61.6754 24.9455 60.5956 25.9585 60.151 27.4781C60.024 27.858 59.8969 28.2378 59.7064 28.5544C57.4833 32.5432 55.2602 36.4686 53.0371 40.4574L50.4329 45.0793L56.1494 48.3716L69.8691 56.0325C73.172 57.8686 74.2518 61.9207 72.4098 65.213C70.5678 68.442 66.6297 69.5816 63.2633 67.7455L48.845 59.5781L46.1772 64.2633L60.5956 72.3674C66.1851 75.5331 73.9342 73.7603 76.856 69.8982C78.952 67.1757 79.6507 64.0733 79.3967 60.6544C79.2061 58.6284 79.7143 57.8686 81.5562 56.9189C82.6996 56.2858 83.9699 55.6526 84.9227 54.7662C88.162 51.7272 88.9242 47.8651 88.3526 43.623ZM55.5143 44.8893C55.0696 45.7124 53.9898 46.029 53.1641 45.5224C52.3384 45.0793 52.0208 44.0029 52.529 43.1798C52.9736 42.3568 54.0534 42.0402 54.8791 42.5467C55.6413 42.9899 55.9589 44.0662 55.5143 44.8893ZM61.7389 26.8449C62.1835 26.0219 63.2633 25.7053 64.0891 26.2118C64.9148 26.655 65.2324 27.7313 64.7242 28.5544C64.2796 29.3775 63.1998 29.694 62.3741 29.1875C61.5484 28.7443 61.2308 27.668 61.7389 26.8449ZM81.6198 48.8148C79.7778 52.0438 75.7762 53.1834 72.4733 51.3473L58.0549 43.2432L56.7846 42.5467L62.6917 32.1L63.3904 30.8337L64.6607 31.5301C64.6607 31.5301 73.8072 36.6585 79.0791 39.6343C82.382 41.4704 83.4618 45.5858 81.6198 48.8148Z" fill="#E24648"/>
<path d="M41.6676 65.9094C36.2051 62.2372 38.9999 56.9189 38.9999 56.9189C40.7784 53.8165 44.6529 52.1704 48.2734 54.2597L62.8188 62.4272C62.8188 62.4905 63.4539 61.2875 63.4539 61.2875C63.7715 60.6544 64.4702 59.5147 64.4702 59.5147L65.1054 58.3751L50.4329 50.1443C48.4004 49.0047 45.4151 45.5857 48.0828 40.8372C48.0828 40.8372 52.529 32.9863 52.7196 32.6065C47.6382 32.2899 40.9054 39.0011 42.6203 47.6751C42.7474 48.2449 42.4298 48.7514 41.9852 49.0047C41.1595 49.3846 40.3973 49.8278 39.6986 50.1443C32.0765 54.1331 31.6954 63.1236 36.7133 67.9355C37.7931 68.9485 39.381 69.8982 39.381 69.8982L53.9264 78.0656L56.213 74.0136" fill="#E24648"/>
<path d="M62.882 40.3942L64.724 37.1652C64.851 36.9753 65.1051 36.8487 65.3592 36.9753L74.3151 41.9771L72.0285 45.9658L63.009 40.9007C62.8185 40.9007 62.755 40.5842 62.882 40.3942Z" fill="#E24648"/>
<path d="M68.408 58.5651C66.566 57.5521 64.2794 58.1852 63.2632 60.0213C62.2469 61.8574 62.8821 64.1367 64.724 65.1497C66.566 66.1627 68.8527 65.5296 69.8689 63.6935C70.8852 61.8574 70.1865 59.5781 68.408 58.5651ZM68.0269 62.6805C67.5823 63.5035 66.5025 63.8201 65.6768 63.3136C64.8511 62.8704 64.5335 61.7941 65.0416 60.971C65.4863 60.1479 66.566 59.8313 67.3918 60.3379C68.2175 60.8444 68.5351 61.8574 68.0269 62.6805Z" fill="#E24648"/>
<path d="M59.5159 74.267C57.6739 73.254 55.3873 73.8871 54.3711 75.7232C53.3548 77.5593 53.99 79.8386 55.832 80.8516C57.674 81.8646 59.9606 81.2315 60.9768 79.3954C61.9931 77.5593 61.3579 75.28 59.5159 74.267ZM59.1984 78.3824C58.7537 79.2054 57.674 79.522 56.8482 79.0155C56.0225 78.509 55.7049 77.496 56.2131 76.6729C56.6577 75.8498 57.7375 75.5332 58.5632 76.0398C59.3254 76.5463 59.643 77.5593 59.1984 78.3824Z" fill="#E24648"/>
<path d="M77.618 42.2301C75.776 41.2171 73.4894 41.8502 72.4731 43.6863C71.4568 45.5224 72.092 47.8017 73.934 48.8147C75.776 49.8277 78.0626 49.1946 79.0789 47.3585C80.0952 45.5224 79.46 43.2431 77.618 42.2301ZM77.3004 46.3455C76.8558 47.1686 75.776 47.4851 74.9503 46.9786C74.1246 46.5354 73.807 45.4591 74.3151 44.636C74.7597 43.813 75.8395 43.4964 76.6652 44.0029C77.4274 44.4461 77.745 45.5224 77.3004 46.3455Z" fill="#E24648"/>
<path d="M55.8319 40.7741C53.9899 39.761 51.7033 40.3942 50.687 42.2303C49.6707 44.0664 50.3059 46.3457 52.1479 47.3587C53.9899 48.3717 56.2765 47.7386 57.2928 45.9025C58.309 44.0664 57.6739 41.7871 55.8319 40.7741ZM55.5143 44.8894C55.0697 45.7125 53.9899 46.0291 53.1641 45.5226C52.3384 45.0794 52.0208 44.003 52.529 43.18C52.9736 42.3569 54.0534 42.0403 54.8791 42.5468C55.6413 42.99 55.9589 44.0664 55.5143 44.8894Z" fill="#E24648"/>
<path d="M65.0418 24.439C63.2633 23.426 60.9767 24.0591 59.8969 25.8319C58.8807 27.668 59.5158 29.9473 61.3578 30.9603C63.1998 31.9733 65.4864 31.3402 66.5027 29.5041C67.519 27.7313 66.8838 25.452 65.0418 24.439ZM64.7242 28.5544C64.2796 29.3775 63.1998 29.6941 62.3741 29.1875C61.5484 28.7444 61.2308 27.668 61.7389 26.8449C62.1836 26.0219 63.2633 25.7053 64.0891 26.2118C64.8513 26.655 65.1689 27.7313 64.7242 28.5544Z" fill="#E24648"/>
<path d="M46.7489 56.7923C44.7798 55.6527 42.2392 56.3491 41.0958 58.3752C39.9525 60.3379 40.6512 62.8704 42.6838 64.0101C44.6528 65.1497 47.1935 64.4533 48.3368 62.4273C49.4801 60.4645 48.7814 57.932 46.7489 56.7923ZM46.2407 61.2243C45.7961 62.0474 44.7163 62.3639 43.8906 61.8574C43.0649 61.3509 42.7473 60.3379 43.2554 59.5148C43.7 58.6917 44.7798 58.3752 45.6056 58.8817C46.4313 59.3882 46.6854 60.4012 46.2407 61.2243Z" fill="#E24648"/>
</svg>
