<svg width="224" height="35" viewBox="0 0 224 35" fill="none" xmlns="http://www.w3.org/2000/svg">
<path d="M-0.124853 33.5531C-0.376184 33.3017 -0.459961 33.0503 -0.459961 32.7151V2.71512C-0.459961 2.37992 -0.376184 2.12852 -0.124853 1.87713C0.0427011 1.62573 0.377809 1.54193 0.712918 1.54193H4.81799C5.48821 1.54193 5.99087 1.79333 6.32598 2.37992L16.0441 18.8883L25.7623 2.37992C26.0974 1.79333 26.6 1.54193 27.2702 1.54193H31.2915C31.6267 1.54193 31.9618 1.62573 32.2131 1.87713C32.4644 2.12852 32.5482 2.37992 32.5482 2.71512V32.7989C32.5482 33.1341 32.4644 33.3855 32.2131 33.6369C31.9618 33.8045 31.7104 33.9721 31.2915 33.9721H26.9351C26.6 33.9721 26.3487 33.8883 26.0974 33.6369C25.846 33.3855 25.7623 33.1341 25.7623 32.8827V12.8548L18.8088 25.0894C18.4737 25.7598 17.8872 26.095 17.1332 26.095H15.0388C14.3686 26.095 13.7821 25.7598 13.3633 25.0894L6.2422 12.8548V32.7151C6.2422 33.0503 6.15843 33.3017 5.9071 33.4693C5.65577 33.7207 5.40443 33.8045 4.98555 33.8045H0.629141C0.37781 33.8883 0.126478 33.7207 -0.124853 33.5531Z" fill="#C55046"/>
<path d="M39.4181 33.5531C39.1668 33.3017 39.083 33.0503 39.083 32.7989V2.71512C39.083 2.37992 39.1668 2.12852 39.4181 1.87713C39.5857 1.62573 39.837 1.54193 40.2559 1.54193H54.8331C58.7706 1.54193 61.7028 2.29612 63.6297 3.8883C65.5566 5.48048 66.5619 7.65925 66.5619 10.3408C66.5619 11.933 66.143 13.2738 65.3052 14.447C64.4675 15.5363 63.4621 16.3743 62.2892 16.8771C63.7135 17.4637 64.8863 18.3855 65.8917 19.7263C66.897 21.0671 67.3159 22.5755 67.3159 24.2514C67.3159 27.1006 66.2268 29.447 64.1323 31.2067C62.0379 32.9665 59.0219 33.8045 55.252 33.8045H40.1721C39.9208 33.8883 39.5857 33.7207 39.4181 33.5531ZM53.9953 14.7822C55.6709 14.7822 57.0113 14.3632 57.9328 13.609C58.8544 12.8548 59.3571 11.8492 59.3571 10.5084C59.3571 9.25143 58.9382 8.24584 58.0166 7.49165C57.0951 6.82126 55.7546 6.40227 53.9953 6.40227H46.2041V14.6984H53.9953V14.7822ZM54.498 28.9442C56.2573 28.9442 57.5977 28.5252 58.6031 27.6034C59.6084 26.7654 60.0273 25.5922 60.0273 24.2514C60.0273 22.9106 59.5246 21.8213 58.5193 20.8995C57.514 20.0615 56.1735 19.5587 54.498 19.5587H46.2041V28.8604H54.498V28.9442Z" fill="#C55046"/>
<path d="M72.9289 33.5531C72.7613 33.3855 72.5938 33.1341 72.5938 32.7989V2.63132C72.5938 2.29612 72.6775 2.04472 72.9289 1.87713C73.0964 1.70953 73.4315 1.54193 73.7666 1.54193H74.6882C75.0233 1.54193 75.3584 1.62573 75.5259 1.79333C75.6935 1.96093 75.8611 2.21232 75.8611 2.54752V16.0391H95.2973V2.63132C95.2973 2.29612 95.3811 2.04472 95.6324 1.87713C95.8 1.70953 96.1351 1.54193 96.4702 1.54193H97.3918C97.7269 1.54193 98.062 1.62573 98.2295 1.79333C98.3971 1.96093 98.5646 2.21232 98.5646 2.54752V32.7989C98.5646 33.1341 98.4809 33.3855 98.2295 33.5531C97.9782 33.7207 97.7269 33.8045 97.3918 33.8045H96.4702C96.1351 33.8045 95.8838 33.7207 95.6324 33.5531C95.4649 33.3855 95.2973 33.1341 95.2973 32.7989V18.8045H75.8611V32.7989C75.8611 33.1341 75.7773 33.3855 75.5259 33.5531C75.2746 33.7207 75.0233 33.8045 74.6882 33.8045H73.7666C73.4315 33.8883 73.1802 33.7207 72.9289 33.5531Z" fill="black"/>
<path d="M105.099 21.5699C105.099 20.6481 105.015 19.3911 105.015 17.7151C105.015 16.0391 105.015 14.7821 105.099 13.8604C105.266 9.67041 106.439 6.48605 108.869 4.39108C111.215 2.21231 114.398 1.12292 118.419 1.12292C122.441 1.12292 125.624 2.21231 127.97 4.39108C130.316 6.56985 131.572 9.75421 131.74 13.8604C131.824 15.7039 131.824 16.9609 131.824 17.7151C131.824 18.4693 131.824 19.7263 131.74 21.5699C131.489 30.0335 127.049 34.3073 118.419 34.3073C109.79 34.3073 105.35 30.0335 105.099 21.5699ZM125.708 29.028C127.467 27.352 128.473 24.7542 128.64 21.3185C128.724 19.4749 128.724 18.2179 128.724 17.6313C128.724 17.0447 128.724 15.8715 128.64 13.9442C128.473 10.5084 127.551 7.91063 125.708 6.23466C123.865 4.55868 121.519 3.72069 118.503 3.72069C115.487 3.72069 113.142 4.55868 111.298 6.23466C109.455 7.91063 108.534 10.5084 108.366 13.9442C108.366 14.8659 108.282 16.1229 108.282 17.6313C108.282 19.1397 108.282 20.3129 108.366 21.3185C108.534 24.7542 109.455 27.352 111.298 29.028C113.058 30.7039 115.487 31.5419 118.503 31.5419C121.435 31.5419 123.865 30.7039 125.708 29.028Z" fill="black"/>
<path d="M141.459 31.1229C139.197 28.9442 138.107 25.7598 138.107 21.4023V2.63132C138.107 2.29612 138.191 2.04472 138.443 1.87713C138.61 1.70953 138.945 1.54193 139.28 1.54193H140.202C140.537 1.54193 140.872 1.62573 141.04 1.79333C141.207 1.96093 141.375 2.21232 141.375 2.54752V21.4023C141.375 24.7542 142.212 27.352 143.972 28.9442C145.647 30.6201 148.077 31.4581 151.26 31.4581C154.36 31.4581 156.79 30.6201 158.465 28.9442C160.141 27.2682 161.062 24.7542 161.062 21.4023V2.63132C161.062 2.29612 161.146 2.04472 161.397 1.87713C161.649 1.70953 161.9 1.62573 162.235 1.62573H163.157C163.492 1.62573 163.743 1.70953 163.995 1.96093C164.162 2.12852 164.33 2.37992 164.33 2.71512V21.4861C164.33 25.9274 163.241 29.1118 160.979 31.2905C158.8 33.3855 155.533 34.4749 151.344 34.4749C146.904 34.3073 143.637 33.2179 141.459 31.1229Z" fill="black"/>
<path d="M175.556 33.1341C173.629 32.3799 172.121 31.2905 171.115 30.0335C170.11 28.7765 169.524 27.4358 169.44 26.0112C169.44 25.7598 169.524 25.5084 169.775 25.3408C169.943 25.1732 170.194 25.0894 170.529 25.0894H171.534C172.121 25.0894 172.54 25.4246 172.623 26.0112C172.875 27.5196 173.796 28.7765 175.388 29.8659C176.98 30.9553 179.326 31.5419 182.342 31.5419C185.525 31.5419 187.955 31.0391 189.463 29.9497C191.054 28.8603 191.808 27.4358 191.808 25.5084C191.808 24.3352 191.39 23.4134 190.636 22.6592C189.882 21.905 188.792 21.2346 187.368 20.6481C185.944 20.0615 183.766 19.3911 180.834 18.4693C178.237 17.7151 176.226 16.9609 174.718 16.2067C173.294 15.4525 172.205 14.5307 171.451 13.4414C170.78 12.352 170.361 11.0112 170.361 9.33521C170.361 7.74303 170.864 6.31845 171.786 5.06147C172.707 3.80448 174.048 2.7989 175.807 2.04471C177.566 1.29052 179.661 0.955322 182.09 0.955322C184.604 0.955322 186.698 1.37432 188.457 2.21231C190.217 3.05029 191.557 4.05588 192.479 5.31286C193.4 6.56985 193.903 7.82683 193.903 9.08381C193.903 9.33521 193.819 9.58661 193.652 9.7542C193.484 9.9218 193.233 10.0056 192.898 10.0056H191.892C191.641 10.0056 191.39 9.9218 191.222 9.838C190.971 9.6704 190.887 9.50281 190.803 9.08381C190.636 7.57543 189.714 6.23465 188.122 5.31286C186.53 4.30728 184.52 3.80448 182.09 3.80448C179.493 3.80448 177.483 4.30728 175.891 5.22906C174.383 6.15085 173.629 7.57543 173.629 9.41901C173.629 10.5922 173.964 11.5978 174.634 12.4358C175.304 13.19 176.393 13.8603 177.734 14.4469C179.074 15.0335 181.169 15.7039 183.85 16.5419C186.614 17.3799 188.792 18.1341 190.3 18.8883C191.808 19.6425 192.981 20.4805 193.819 21.5698C194.573 22.5754 194.992 24 194.992 25.5922C194.992 28.3576 193.903 30.5363 191.641 32.0447C189.379 33.6369 186.279 34.3911 182.342 34.3911C179.745 34.3073 177.483 33.8883 175.556 33.1341Z" fill="black"/>
<path d="M201.108 33.5531C200.94 33.3855 200.772 33.1341 200.772 32.7989V2.63132C200.772 2.29612 200.856 2.04472 201.108 1.87713C201.275 1.70953 201.61 1.54193 201.945 1.54193H221.549C221.884 1.54193 222.219 1.62573 222.387 1.79333C222.555 1.96093 222.722 2.21232 222.722 2.54752V3.21791C222.722 3.5531 222.638 3.8045 222.387 3.9721C222.136 4.1397 221.884 4.2235 221.549 4.2235H203.956V15.9553H220.46C220.795 15.9553 221.13 16.0391 221.298 16.2067C221.465 16.3743 221.633 16.6257 221.633 16.9609V17.6313C221.633 17.9665 221.549 18.2179 221.298 18.3855C221.047 18.5531 220.795 18.6369 220.46 18.6369H203.956V30.8715H221.968C222.303 30.8715 222.638 30.9553 222.806 31.1229C222.973 31.2905 223.141 31.5419 223.141 31.8771V32.5475C223.141 32.8827 223.057 33.1341 222.806 33.3017C222.555 33.4693 222.303 33.5531 221.968 33.5531H201.862C201.526 33.8883 201.275 33.7207 201.108 33.5531Z" fill="black"/>
</svg>
