<svg width="38" height="38" viewBox="0 0 38 38" fill="none" xmlns="http://www.w3.org/2000/svg">
<rect x="0.733398" width="36.9444" height="38" rx="10.1333" fill="#BDBDBD"/>
<path d="M4.95557 17.7848C5.00902 16.3431 5.00902 14.2073 5.11592 12.0181C5.22283 10.3094 5.65044 8.76093 6.71948 7.37264C7.89543 5.82416 9.44553 4.91644 11.3164 4.54266C12.225 4.38248 13.1337 4.27569 14.0424 4.27569C16.6615 4.22229 19.2272 4.22229 21.8464 4.22229C23.2896 4.22229 24.7863 4.27569 26.2295 4.38248C28.3675 4.59606 30.1849 5.397 31.5747 7.05227C32.4299 8.06679 32.911 9.1881 33.1782 10.4696C33.392 11.4307 33.4455 12.3384 33.4455 13.2996C33.4455 16.6101 33.4455 19.9206 33.4455 23.2846C33.4455 24.6729 33.3386 26.0612 32.8575 27.4495C31.9488 29.9591 30.2384 31.5075 27.6727 32.2551C26.6571 32.5221 25.588 32.6288 24.5724 32.6288C20.7239 32.7356 16.8219 32.789 12.9734 32.5754C11.3698 32.5221 9.87315 32.0949 8.4834 31.1872C6.77293 30.0124 5.70389 28.4106 5.32973 26.3815C5.16937 25.4738 5.06247 24.5661 5.06247 23.6584C4.95557 21.9497 4.95557 20.241 4.95557 17.7848ZM19.2272 30.1726C20.9377 30.1726 22.7016 30.1192 24.4121 30.1192C25.2673 30.1192 26.0691 30.0658 26.8709 29.8523C28.5279 29.4251 29.7573 28.464 30.3453 26.8087C30.7194 25.901 30.8263 24.9398 30.8263 23.9253C30.8263 20.2944 30.8263 16.7169 30.8263 13.086C30.8263 12.4452 30.7194 11.7511 30.6125 11.1103C30.1849 8.97451 28.8486 7.63962 26.7105 7.10566C25.6415 6.89208 24.5724 6.83868 23.45 6.83868C20.8843 6.83868 18.372 6.83868 15.8063 6.83868C14.5235 6.83868 13.1872 6.83868 11.9043 7.05227C9.8197 7.47943 8.42994 8.65414 7.89543 10.6832C7.62817 11.6977 7.57471 12.7122 7.57471 13.7267C7.52126 16.0762 7.52126 18.479 7.52126 20.8284C7.52126 22.0031 7.52126 23.1778 7.62817 24.3525C7.68162 25.0466 7.78852 25.7408 7.94888 26.4349C8.37649 28.0368 9.44553 29.1047 11.0491 29.6387C12.0112 29.9591 13.0268 30.0658 14.0424 30.0658C15.7529 30.1192 17.5168 30.1726 19.2272 30.1726Z" fill="white"/>
<path d="M19.2272 25.7942C15.1649 25.7942 11.9043 22.4837 11.9043 18.479C11.9043 14.4209 15.2183 11.1638 19.2272 11.1638C23.2896 11.2172 26.5501 14.4743 26.5501 18.479C26.5501 22.5371 23.2361 25.7942 19.2272 25.7942ZM19.2272 23.2312C21.8464 23.2312 23.9844 21.0954 23.9844 18.479C23.9844 15.8626 21.8464 13.7268 19.2272 13.7268C16.6081 13.7268 14.5234 15.8092 14.47 18.479C14.47 21.0954 16.6081 23.2312 19.2272 23.2312Z" fill="white"/>
<path d="M28.5277 10.8967C28.5277 11.8578 27.7259 12.6054 26.8173 12.6054C25.9086 12.6054 25.1068 11.8044 25.1602 10.8433C25.1602 9.8822 25.962 9.13466 26.9242 9.18806C27.8328 9.18806 28.5277 9.9356 28.5277 10.8967Z" fill="white"/>
</svg>
