<svg width="24" height="24" viewBox="0 0 24 24" fill="none" xmlns="http://www.w3.org/2000/svg">
<g clip-path="url(#clip0_671_426)">
<path d="M23.1286 1.15363L18.2536 0.0286319C17.7239 -0.093243 17.1802 0.183319 16.9646 0.680194L14.7146 5.93019C14.5177 6.38956 14.6489 6.92863 15.038 7.24269L17.8786 9.56769C16.1911 13.163 13.2427 16.1536 9.57236 17.8739L7.24736 15.0333C6.92861 14.6442 6.39424 14.513 5.93486 14.7099L0.684863 16.9599C0.183301 17.1802 -0.0932618 17.7239 0.0286132 18.2536L1.15361 23.1286C1.2708 23.6349 1.7208 24.0005 2.25049 24.0005C14.2552 24.0005 24.0005 14.2739 24.0005 2.25051C24.0005 1.72551 23.6396 1.27082 23.1286 1.15363Z" fill="#E24648"/>
</g>
<defs>
<clipPath id="clip0_671_426">
<rect width="24" height="24" fill="white"/>
</clipPath>
</defs>
</svg>
