<svg width="36" height="38" viewBox="0 0 36 38" fill="none" xmlns="http://www.w3.org/2000/svg">
<rect width="35.8889" height="38" rx="10.1333" fill="#BDBDBD"/>
<path d="M4.37759 18.565C6.93515 17.0196 9.79009 15.7298 12.4576 14.4334C17.0468 12.31 21.6542 10.2234 26.3081 8.28078C27.2135 7.94978 28.8405 7.62608 29 9.09808C28.9127 11.1817 28.5533 13.2531 28.3068 15.3245C27.6812 19.8797 26.9581 24.4193 26.253 28.9595C26.0101 30.4718 24.283 31.2547 23.178 30.2869C20.5223 28.3191 17.8462 26.3705 15.2245 24.3571C14.3657 23.3998 15.162 22.0251 15.9291 21.3415C18.1163 18.9769 20.436 16.9679 22.509 14.4811C23.0681 12.9998 21.416 14.2482 20.871 14.6307C17.8766 16.8943 14.9555 19.2961 11.7984 21.2855C10.1858 22.2593 8.30628 21.4271 6.69439 20.8837C5.24913 20.2273 3.13129 19.566 4.37744 18.5651L4.37759 18.565Z" fill="white"/>
</svg>
